<svg xmlns="http://www.w3.org/2000/svg" width="140" height="29" viewBox="0 0 140 29">
    <g fill="#FFF" fill-rule="nonzero">
        <path d="M68.615 14.508c0-1.919-1.57-3.517-3.43-3.517s-3.43 1.598-3.43 3.517c0 1.89 1.57 3.517 3.43 3.517s3.43-1.628 3.43-3.517zm1.483-4.913c1.308 1.337 2.034 3.081 2.034 4.913 0 1.831-.726 3.575-2.034 4.912-1.308 1.308-3.052 2.006-4.912 2.006-1.221 0-2.326-.436-3.285-1.308l-.146-.116v7.784l-3.516 1.11V7.85h3.517v1.047l.145-.146c1.047-1.017 2.238-1.162 3.285-1.162 1.83 0 3.575.698 4.912 2.005zM76.9 14.508c0 1.918 1.57 3.517 3.43 3.517s3.43-1.599 3.43-3.517c0-1.89-1.57-3.517-3.43-3.517s-3.43 1.627-3.43 3.517zm-1.483 4.912c-1.308-1.337-2.034-3.08-2.034-4.912 0-1.832.726-3.576 2.034-4.913C76.725 8.288 78.47 7.59 80.33 7.59c1.22 0 2.325.436 3.284 1.308l.146.116V7.85h3.517v13.313H83.76v-1.046l-.146.145c-1.046 1.017-2.238 1.163-3.284 1.163a6.979 6.979 0 0 1-4.913-2.006zM90.794 28.896l3.169-7.703-5.32-13.342h3.895l3.314 8.284 3.372-8.284h3.866l-8.488 21.045h-3.808M6.804 9.831c-2.562 0-4.647 2.098-4.647 4.677 0 2.578 2.085 4.676 4.647 4.676 2.563 0 4.648-2.098 4.648-4.676 0-2.579-2.085-4.677-4.648-4.677zm0 11.452a6.852 6.852 0 0 1-4.821-1.956A6.866 6.866 0 0 1 0 14.507c0-1.8.705-3.512 1.986-4.821a6.85 6.85 0 0 1 4.818-1.954c1.841 0 3.391.974 4.367 1.79l.281.236V8.022h2.157v12.971h-2.157v-1.736l-.281.235c-.976.817-2.526 1.791-4.367 1.791zM17.514 20.993v-10.93h-1.976v-2.04h1.976V4.188C17.514 1.84 19.38 0 21.761 0h2.713l-.548 2.041H21.82c-1.144 0-2.148 1.03-2.148 2.206v3.775h4.099v2.042H19.67v10.929h-2.157M31.905 20.993a4.252 4.252 0 0 1-4.247-4.247v-6.682h-1.977V8.022h1.977V0h2.157v8.022h4.098v2.042h-4.098v6.624c0 1.185 1.024 2.264 2.148 2.264h2.107l.547 2.041h-2.712M41.194 9.918c-1.668 0-3.216 1.202-3.853 2.992l-.021.039-.124.248h7.997l-.155-.307c-.598-1.769-2.146-2.972-3.844-2.972zm-.004 11.307a5.79 5.79 0 0 1-4.374-1.977 6.668 6.668 0 0 1-1.76-4.084c-.028-.204-.028-.395-.028-.598 0-.508.058-1.024.17-1.533a6.843 6.843 0 0 1 1.617-3.148 5.935 5.935 0 0 1 4.379-1.95c1.67 0 3.236.693 4.409 1.952.841.93 1.4 2.018 1.614 3.141.169.993.173 1.61.155 1.919H37.098v.23c.301 2.296 2.035 4.035 4.035 4.066 1.23-.06 2.442-.563 3.283-1.353l1.8 1.075a7.617 7.617 0 0 1-1.594 1.297c-.95.57-2.136.903-3.432.963zM49.49 20.993V8.023h2.158v1.639l.298-.33c.765-.843 3.013-1.531 4.508-1.595l-.526 2.154c-2.373.068-4.28 1.917-4.28 4.18v6.922H49.49M121.714 11.528l3.777-2.186c-.417-.733-.315-.557-.696-1.248-.403-.732-.25-1.02.582-1.026 2.423-.017 4.847-.02 7.27-.006.72.003.894.312.533.947a632.802 632.802 0 0 1-3.634 6.302c-.39.668-.732.667-1.14.013-.42-.672-.308-.506-.756-1.268l-3.765 2.187c.074.193.169.318.246.453.933 1.623 1.35 2.398 2.313 4.003 1.142 1.901 3.536 2.016 4.895.258.151-.195.29-.403.413-.616 2.287-3.962 4.575-7.923 6.849-11.892.23-.402.438-.84.538-1.289a2.85 2.85 0 0 0-2.79-3.486c-4.9-.026-9.803-.03-14.704.013-2.232.02-3.574 2.255-2.593 4.22.32.639.703 1.247 1.062 1.866.676 1.167.854 1.474 1.6 2.755M110.817 23.767l.006-4.348s-.603-.007-1.417-.007c-.83 0-1-.293-.591-1.01a585.204 585.204 0 0 1 3.617-6.24c.362-.616.682-.67 1.078.014 1.203 2.084 2.41 4.165 3.597 6.258.379.668.207.96-.558.985l-1.464-.001v4.36l5.099.001c2.2-.032 3.49-2.029 2.66-4.07a5.465 5.465 0 0 0-.323-.662c-2.26-3.936-4.518-7.872-6.79-11.8-.23-.398-.503-.795-.838-1.104a2.827 2.827 0 0 0-4.38.656c-2.465 4.192-4.91 8.396-7.315 12.622-1.096 1.925.153 4.19 2.328 4.327.707.045 3.73.019 5.29.019"/>
    </g>
</svg>
