<svg xmlns="http://www.w3.org/2000/svg" width="118" height="22" viewBox="0 0 118 22">
    <g fill="#FFF" fill-rule="evenodd">
        <path d="M20.249 16.342a.47.47 0 0 1 .101.292.48.48 0 0 1-.484.474h-2.598l.001 4.34c0 .096-.03.19-.085.27a.49.49 0 0 1-.673.12l-2.542-1.717a.472.472 0 0 1-.21-.39v-2.622h-.683l-4.27-.001a40.892 40.892 0 0 1-.79-.037C3.66 16.663.374 13.094.374 8.769c0-4.598 3.79-8.34 8.449-8.34 4.46 0 8.165 3.441 8.433 7.835.002.038.005.973.007 2.805a.48.48 0 0 1-.483.475h-2.537a.48.48 0 0 1-.483-.474V8.357l-.005-.085c-.119-1.242-.464-2.391-1.412-3.236a5.185 5.185 0 0 0-3.46-1.312c-2.833 0-5.138 2.255-5.138 5.025 0 2.585 1.978 4.734 4.6 4.999h9.613c.15 0 .29.067.382.183l1.91 2.411zM22.087 10.842V.692c0-.238.217-.453.459-.453h2.975c.266 0 .46.215.46.453v9.959c0 1.743 1.257 2.722 2.975 2.722 1.741 0 3.023-.979 3.023-2.722V.692c0-.238.193-.453.46-.453h2.975c.241 0 .46.215.46.453v10.15c0 3.63-3.097 6.352-6.918 6.352-3.798 0-6.87-2.722-6.87-6.352zm16.375 6.114c-.363 0-.556-.31-.41-.621L45.621.263a.491.491 0 0 1 .41-.263h.243c.17 0 .338.12.41.263l7.571 16.072c.146.31-.048.62-.41.62H51.16c-.436 0-.63-.143-.847-.596l-.87-1.887h-6.58l-.87 1.91a.9.9 0 0 1-.871.574h-2.66zm5.852-5.732h3.676l-1.838-3.94h-.024l-1.814 3.94zm12.818 5.278V.692c0-.238.193-.453.435-.453h5.902c4.668 0 8.49 3.749 8.49 8.334 0 4.633-3.822 8.382-8.49 8.382h-5.902c-.242 0-.435-.215-.435-.453zm3.774-3.08h2.54c2.733 0 4.499-2.126 4.499-4.849 0-2.698-1.766-4.824-4.499-4.824h-2.54v9.672zm14.9 3.08V.692c0-.238.192-.453.459-.453h5.829c3.193 0 5.418 2.388 5.418 5.277 0 2.962-2.225 5.374-5.395 5.374h-2.539v5.612a.473.473 0 0 1-.46.454h-2.853a.456.456 0 0 1-.46-.454zm3.774-9.099h2.443c1.04 0 1.766-.812 1.766-1.887 0-1.003-.725-1.767-1.766-1.767H79.58v3.654zm8.32 9.553c-.362 0-.556-.31-.41-.621L95.06.263A.49.49 0 0 1 95.471 0h.242c.169 0 .338.12.411.263l7.57 16.072c.146.31-.048.62-.41.62h-2.685c-.436 0-.63-.143-.847-.596l-.87-1.887h-6.58l-.87 1.91a.9.9 0 0 1-.87.574H87.9zm5.854-5.732h3.677l-1.838-3.94h-.025l-1.814 3.94zm14.585 5.278V8.907L102.994.931c-.194-.31 0-.692.387-.692h3.144c.193 0 .315.119.387.215l3.363 4.895 3.361-4.895c.072-.096.17-.215.387-.215h3.145c.387 0 .58.382.387.692l-5.418 7.953v7.618a.473.473 0 0 1-.46.453H108.8a.456.456 0 0 1-.46-.453z"/>
    </g>
</svg>
