<svg xmlns="http://www.w3.org/2000/svg" width="103" height="34" viewBox="0 0 103 34">
    <g fill="none" fill-rule="nonzero">
        <path fill="#606060" d="M11.653.015c.383 1.679.796 3.402 1.809 4.8 2.693 3.924 6.565 6.79 9.015 10.926.801 1.335 1.447 2.917 1.195 4.533-.297 1.435-1.246 2.58-2.13 3.66-.378-1.72-1.064-3.365-2.075-4.774-2.312-3.277-5.327-5.88-8.007-8.803-1.254-1.346-2.195-3.152-2.088-5.094-.045-2.024 1.086-3.776 2.28-5.248z"/>
        <path fill="#434343" d="M7.068 4.9c.225 1.93.903 3.816 2.055 5.341 2.75 3.708 6.437 6.572 8.8 10.614.695 1.262 1.322 2.708 1.134 4.207-.292 1.486-1.262 2.67-2.146 3.813-.426-1.635-1.019-3.243-1.991-4.61-2.37-3.398-5.502-6.069-8.244-9.11-1.165-1.28-2.02-2.978-1.961-4.79-.083-2.108 1.048-3.98 2.353-5.465z"/>
        <path fill="#000" d="M2.338 9.907c.362 1.68.798 3.396 1.8 4.794 2.729 3.96 6.652 6.857 9.096 11.059.81 1.386 1.458 3.053 1.05 4.703-.39 1.279-1.213 2.342-2.052 3.328-.424-1.763-1.123-3.461-2.187-4.899-2.334-3.186-5.28-5.774-7.922-8.658C.883 18.9-.053 17.12.076 15.191c-.094-2.041 1.026-3.827 2.262-5.284zM85.84 8.725h2.583c.021 5.685 0 11.37.01 17.055h-2.597c.003-5.685-.004-11.37.003-17.055zM33.757 12.55c2.88-.143 5.767-.011 8.65-.064-.003.941-.003 1.879-.003 2.816-2.82-.011-5.635-.007-8.45-.004.003.862.01 1.724.017 2.586 2.333.022 4.67-.042 7.003.019 1.058.026 2.008 1.073 2.02 2.188.035 1.259.056 2.522-.019 3.776-.11 1.21-1.282 2-2.372 1.913-2.98.008-5.96-.004-8.94-.004.007-.907.014-1.81.036-2.714 2.908.012 5.813-.015 8.722.02v-2.54c-2.216 0-4.435.048-6.65-.012-1.068.007-2.126-.794-2.187-1.98a26.587 26.587 0 0 1 .014-4.098c.136-1.112 1.133-1.89 2.159-1.902zm10.987 2.23c.021-1.22 1.08-2.252 2.226-2.23 2.415-.124 4.838-.049 7.253-.041 1.158-.053 2.466.654 2.648 1.961.157 1.3.143 2.628.04 3.932-.054 1.232-1.158 2.135-2.284 2.124-2.462.072-4.927-.004-7.389.03v2.51c3.048.095 6.12-.204 9.154.17-.014.84-.021 1.682-.032 2.521-3.126.034-6.26.042-9.386.008-1.262.008-2.37-1.281-2.244-2.608.01-2.794-.018-5.587.014-8.377zm2.487.526c.003.858.007 1.72.014 2.578 2.38.004 4.76-.004 7.14.004.003-.866.003-1.735.006-2.605-2.386.027-4.773 0-7.16.023zm23.4-2.812l-.021 1.459c-2.64 3-5.203 6.082-7.832 9.098 2.583.026 5.17.019 7.753.004.05.903.093 1.807.118 2.71-4.12.03-8.24.008-12.363.015v-1.485c2.594-3.017 5.242-5.984 7.857-8.982-2.615-.034-5.234-.01-7.85-.015-.007-.937-.007-1.87-.003-2.804 4.112 0 8.229-.008 12.341 0zm1.222-.004c4.124.004 8.247 0 12.37.004l.033 1.315c-2.59 3.126-5.296 6.142-7.89 9.265.815 0 1.63-.004 2.444-.012 1.772.012 3.541 0 5.313-.011.072.907.129 1.814.133 2.725-4.135.008-8.269.004-12.403.004-.003-.51-.003-1.024-.003-1.535 2.683-2.933 5.216-6.021 7.914-8.943-2.633-.015-5.27-.004-7.907-.004-.004-.937-.007-1.87-.004-2.808zm18.495 2.366c-.09-1.368 1.168-2.393 2.39-2.325 2.39-.079 4.788-.053 7.179-.019 1.132-.045 2.315.753 2.519 1.977.128 1.248.089 2.51.043 3.765-.015 1.195-.994 2.22-2.116 2.26-2.519.095-5.041.012-7.564.03v2.53c3.026-.023 6.056.003 9.083-.015.01.907.018 1.81.021 2.717-3.073-.003-6.146.02-9.218-.003-1.165.049-2.366-.983-2.334-2.26a388.346 388.346 0 0 1-.003-8.657zm2.444.442c.007.862.014 1.728.025 2.59 2.415-.008 4.834 0 7.25-.004.007-.862.01-1.72.018-2.582-2.43-.011-4.864-.004-7.293-.004z"/>
    </g>
</svg>
