<svg xmlns="http://www.w3.org/2000/svg" width="103" height="34" viewBox="0 0 103 34">
    <g fill="#FFF" fill-rule="nonzero">
        <path d="M11.589 0c.383 1.678.796 3.402 1.809 4.8 2.693 3.923 6.565 6.79 9.015 10.926.8 1.335 1.447 2.917 1.195 4.533-.298 1.434-1.246 2.58-2.13 3.66-.378-1.721-1.065-3.365-2.075-4.774-2.313-3.278-5.327-5.88-8.007-8.803C10.142 8.995 9.2 7.189 9.308 5.248 9.263 3.223 10.394 1.47 11.588 0zM7.004 4.885c.225 1.93.903 3.816 2.055 5.34 2.75 3.709 6.437 6.572 8.8 10.615.695 1.261 1.322 2.707 1.134 4.207-.292 1.486-1.262 2.67-2.146 3.813-.426-1.636-1.019-3.243-1.992-4.61-2.368-3.399-5.501-6.07-8.243-9.111-1.165-1.279-2.02-2.977-1.961-4.789-.083-2.109 1.047-3.98 2.353-5.465zM2.274 9.891c.361 1.681.798 3.397 1.8 4.794 2.729 3.96 6.652 6.858 9.096 11.06.81 1.386 1.458 3.053 1.05 4.703-.39 1.278-1.214 2.341-2.052 3.328-.424-1.763-1.123-3.462-2.187-4.899-2.334-3.186-5.28-5.775-7.922-8.658C.82 18.884-.117 17.103.012 15.176c-.094-2.042 1.026-3.828 2.262-5.285zM85.775 8.71h2.584c.021 5.685 0 11.37.01 17.055h-2.597c.003-5.685-.004-11.37.003-17.055zm-52.081 3.825c2.88-.144 5.767-.011 8.65-.064-.004.94-.004 1.878-.004 2.816-2.819-.012-5.634-.008-8.45-.004.004.862.01 1.724.018 2.585 2.333.023 4.67-.041 7.003.02 1.058.026 2.008 1.073 2.019 2.188.036 1.259.057 2.521-.018 3.776-.11 1.21-1.283 2-2.372 1.913-2.98.007-5.96-.004-8.94-.004.007-.907.014-1.81.035-2.714 2.909.011 5.814-.015 8.722.019v-2.54c-2.215 0-4.434.049-6.65-.012-1.068.008-2.125-.793-2.186-1.98a26.587 26.587 0 0 1 .014-4.098c.136-1.111 1.133-1.89 2.159-1.901zm10.987 2.23c.021-1.22 1.079-2.253 2.226-2.23 2.415-.125 4.838-.05 7.253-.042 1.158-.053 2.466.654 2.648 1.962.157 1.3.143 2.627.04 3.931-.054 1.233-1.158 2.136-2.284 2.125-2.462.071-4.927-.004-7.39.03v2.51c3.049.094 6.122-.204 9.155.17-.014.839-.021 1.682-.032 2.521-3.126.034-6.26.042-9.387.008-1.26.007-2.368-1.282-2.243-2.609.01-2.793-.018-5.586.014-8.376zm2.487.525c.003.859.007 1.72.014 2.578 2.38.004 4.76-.003 7.14.004.003-.865.003-1.735.006-2.604-2.387.026-4.773 0-7.16.022zm23.4-2.812l-.021 1.46c-2.64 3-5.203 6.081-7.833 9.098 2.584.026 5.17.019 7.754.003.05.904.093 1.807.118 2.71-4.12.03-8.24.008-12.363.016v-1.486c2.594-3.016 5.242-5.983 7.857-8.981-2.615-.034-5.234-.011-7.85-.015a244.73 244.73 0 0 1-.003-2.805c4.112 0 8.228-.007 12.341 0zm1.222-.004c4.124.004 8.247 0 12.37.004.007.33.025.987.032 1.316-2.59 3.126-5.295 6.142-7.889 9.264.815 0 1.63-.003 2.444-.011 1.772.011 3.541 0 5.313-.011.072.907.129 1.814.132 2.725-4.134.008-8.268.004-12.402.004-.003-.51-.003-1.025-.003-1.535 2.683-2.933 5.216-6.021 7.914-8.943-2.633-.015-5.27-.004-7.907-.004-.004-.938-.007-1.871-.004-2.809zm18.495 2.367c-.09-1.369 1.168-2.393 2.39-2.325 2.39-.08 4.788-.053 7.178-.019 1.133-.045 2.316.752 2.52 1.977.128 1.247.089 2.51.042 3.765-.014 1.194-.993 2.219-2.115 2.26-2.519.095-5.042.012-7.564.03v2.53c3.026-.023 6.056.003 9.083-.016.01.907.018 1.81.021 2.718-3.073-.004-6.146.019-9.219-.004-1.164.05-2.365-.983-2.333-2.26a388.346 388.346 0 0 1-.003-8.656zm2.444.442c.007.862.014 1.727.025 2.59 2.415-.008 4.834 0 7.25-.005.007-.861.01-1.72.017-2.581-2.43-.012-4.863-.004-7.292-.004z"/>
    </g>
</svg>
